HIERARCHY
ROOT Hips
{
	OFFSET 288.785309 90.821663 355.685303
	CHANNELS 6 Xposition Yposition Zposition Zrotation Yrotation Xrotation 
	JOINT LeftUpLeg
	{
		OFFSET 0.103455 1.857837 10.548512
		CHANNELS 3 Zrotation Yrotation Xrotation
		JOINT LeftLeg
		{
			OFFSET 43.499992 -0.000061 0.000004
			CHANNELS 3 Zrotation Yrotation Xrotation
			JOINT LeftFoot
			{
				OFFSET 42.372192 0.000027 0.000012
				CHANNELS 3 Zrotation Yrotation Xrotation
				JOINT LeftToe
				{
					OFFSET 17.300001 -0.000001 -0.000027
					CHANNELS 3 Zrotation Yrotation Xrotation
					End Site
					{
						OFFSET 0.000000 0.000000 0.000000
					}
				}
			}
		}
	}
	JOINT RightUpLeg
	{
		OFFSET 0.103461 1.857839 -10.548507
		CHANNELS 3 Zrotation Yrotation Xrotation
		JOINT RightLeg
		{
			OFFSET 43.500042 -0.000038 0.000004
			CHANNELS 3 Zrotation Yrotation Xrotation
			JOINT RightFoot
			{
				OFFSET 42.372265 -0.000008 0.000009
				CHANNELS 3 Zrotation Yrotation Xrotation
				JOINT RightToe
				{
					OFFSET 17.300003 -0.000002 0.000008
					CHANNELS 3 Zrotation Yrotation Xrotation
					End Site
					{
						OFFSET 0.000000 0.000000 0.000000
					}
				}
			}
		}
	}
	JOINT Spine
	{
		OFFSET 6.901968 -2.603718 -0.000004
		CHANNELS 3 Zrotation Yrotation Xrotation
		JOINT Spine1
		{
			OFFSET 12.588099 -0.000026 0.000011
			CHANNELS 3 Zrotation Yrotation Xrotation
			JOINT Spine2
			{
				OFFSET 12.343204 0.000013 -0.000006
				CHANNELS 3 Zrotation Yrotation Xrotation
				JOINT Neck
				{
					OFFSET 25.832897 0.000013 -0.000010
					CHANNELS 3 Zrotation Yrotation Xrotation
					JOINT Head
					{
						OFFSET 11.766594 0.000008 0.000009
						CHANNELS 3 Zrotation Yrotation Xrotation
						End Site
						{
							OFFSET 0.000000 0.000000 0.000000
						}
					}
				}
				JOINT LeftShoulder
				{
					OFFSET 19.745893 -1.480358 6.000095
					CHANNELS 3 Zrotation Yrotation Xrotation
					JOINT LeftArm
					{
						OFFSET 11.284145 0.000002 -0.000011
						CHANNELS 3 Zrotation Yrotation Xrotation
						JOINT LeftForeArm
						{
							OFFSET 33.000027 -0.000015 0.000026
							CHANNELS 3 Zrotation Yrotation Xrotation
							JOINT LeftHand
							{
								OFFSET 25.200012 0.000040 -0.000003
								CHANNELS 3 Zrotation Yrotation Xrotation
								End Site
								{
									OFFSET 0.000000 0.000000 0.000000
								}
							}
						}
					}
				}
				JOINT RightShoulder
				{
					OFFSET 19.746094 -1.480360 -6.000064
					CHANNELS 3 Zrotation Yrotation Xrotation
					JOINT RightArm
					{
						OFFSET 11.284170 0.000005 -0.000010
						CHANNELS 3 Zrotation Yrotation Xrotation
						JOINT RightForeArm
						{
							OFFSET 33.000084 0.000016 0.000005
							CHANNELS 3 Zrotation Yrotation Xrotation
							JOINT RightHand
							{
								OFFSET 25.199785 0.000134 0.000429
								CHANNELS 3 Zrotation Yrotation Xrotation
								End Site
								{
									OFFSET 0.000000 0.000000 0.000000
								}
							}
						}
					}
				}
			}
		}
	}
}
MOTION
Frames: 12
Frame Time: 0.033333
-296.037415 86.601830 390.269012 83.071595 0.516615 131.400026 166.023607 -0.155803 172.596080 -47.541429 2.567702 -6.317083 104.273493 4.170333 5.588309 21.454555 0.003097 -0.000001 147.684112 12.671797 -174.584935 -59.633828 -6.608695 10.032890 78.167970 -3.610715 12.711532 21.454558 -0.003093 -0.000015 6.294698 -0.648568 2.383899 2.548801 -1.348318 4.753598 2.231812 -1.319487 4.761628 22.299792 28.098176 16.315806 -28.162381 -21.597854 28.475981 128.566317 -87.403390 49.943317 -56.090391 60.378524 -53.234692 -116.968916 5.499118 3.105335 7.913562 -25.590919 -21.808038 28.988272 83.008915 -149.366047 -83.354666 -9.271210 35.041691 -89.572166 1.038398 -2.400473 3.076300 -0.764584 7.232448 
-294.028595 88.263527 396.791687 81.731389 0.852176 131.084239 171.041392 -1.928605 176.939561 -43.618677 2.356854 -7.937813 99.003025 5.324104 2.681308 21.454557 0.003098 0.000000 148.772517 11.575701 -174.350674 -42.080389 -6.484361 7.234622 72.652531 -1.319430 11.930558 21.454557 -0.003114 -0.000018 6.146959 -0.396514 2.100021 2.265932 -0.833001 4.192213 1.948715 -0.807549 4.197157 22.928892 28.815591 17.232827 -28.302646 -22.894149 29.969094 132.525245 -86.767896 46.027180 -54.415161 60.420106 -51.743413 -116.596903 5.154068 3.113438 7.045665 -25.353471 -21.172891 24.839443 83.543172 -153.463450 -84.100481 -9.397032 34.366718 -89.447331 1.066784 -2.396898 3.021893 -0.296960 7.075693 
-292.377197 89.303017 403.178589 79.396578 1.524967 131.748776 172.544976 -5.243202 178.723566 -44.563593 3.559326 -8.041447 92.504257 5.371556 0.780114 21.454553 0.003083 0.000000 150.490910 9.455505 -176.519573 -26.172738 -4.584744 5.538204 64.421607 2.205677 15.664571 21.454557 -0.003108 -0.000017 5.905958 -0.008535 1.739535 1.798420 -0.043153 3.478743 1.480969 -0.022023 3.478937 23.076052 30.139624 17.773887 -28.471375 -24.221379 31.204911 131.143279 -86.013262 47.473445 -52.494928 58.914459 -49.993064 -116.753901 5.186096 3.117807 7.158918 -24.896902 -21.459870 16.085541 84.573567 -162.133145 -84.564470 -8.410483 33.452180 -89.564421 1.059687 -2.401611 2.557694 0.538173 7.003001 
-290.997986 89.314308 409.200287 77.614192 2.133110 133.732795 169.876353 -8.212603 -179.166940 -52.111649 4.256774 -8.006859 85.425408 5.521115 0.938931 21.454557 0.003094 0.000004 151.389763 8.582507 177.572638 -18.034753 -2.025922 6.116530 57.686234 5.229836 20.902033 21.454557 -0.003101 -0.000016 5.775159 0.192330 1.303697 1.541679 0.368009 2.609743 1.223944 0.383888 2.607473 22.552643 32.243797 17.716916 -28.611526 -25.632945 32.028874 123.584172 -85.440694 55.102831 -52.552818 56.400386 -50.217600 -116.901693 5.634042 3.093280 7.517487 -24.081039 -22.486210 -0.184307 85.430784 -178.290258 -84.486640 -6.873716 33.523166 -89.946276 0.961335 -2.411765 2.808101 -0.225483 7.175098 
-289.663086 88.407272 415.396912 76.849791 3.228568 136.711304 164.780527 -10.263397 -176.733891 -64.465887 5.251840 -9.014281 77.719384 6.365522 0.963629 21.454553 0.003091 0.000002 151.376321 7.780697 178.813328 -20.516326 -2.233054 4.505878 54.610931 6.896747 20.416718 21.454563 -0.003103 -0.000018 5.864067 0.300344 0.909652 1.719996 0.587608 1.823506 1.402072 0.598744 1.819932 22.122827 33.444602 17.043564 -29.392763 -26.411448 32.090561 106.848235 -84.037241 71.996218 -54.996318 53.940534 -53.066106 -116.842011 5.809899 3.078733 8.829721 -23.401543 -23.080726 -21.887852 85.356068 160.153333 -83.821017 -4.839299 33.919580 -89.950695 0.870017 -2.405583 2.759327 -0.615235 9.203940 
-288.524994 85.605347 422.039703 78.345077 3.548045 140.744627 158.601159 -10.446791 -174.393594 -79.485896 5.019776 -9.128529 75.739210 7.174160 3.398647 21.454548 0.003086 0.000002 152.342821 10.267499 -176.448416 -33.278389 -0.947041 0.421487 78.437530 5.836858 23.005042 21.454557 -0.003114 -0.000016 6.159678 0.033721 0.492197 2.306773 0.057837 0.984953 1.988721 0.063918 0.984582 22.248802 32.512445 15.772684 -31.712268 -25.870392 31.177566 91.735526 -82.797664 87.214112 -59.709220 50.920710 -57.395254 -115.715808 5.713408 3.038075 10.336480 -21.882642 -25.330511 -25.740814 84.699728 156.372605 -82.009296 -2.236839 34.889822 -89.540618 0.892008 -2.388831 3.392407 -0.012153 9.537606 
-287.276306 83.104927 428.059113 79.840431 5.289336 144.534972 152.318642 -11.484600 -172.565494 -92.648723 4.185269 -7.400225 77.169000 5.856317 3.104244 21.454543 0.003088 0.000001 154.750927 9.904207 -171.229578 -42.984320 -1.563546 -0.730709 92.988408 3.306932 20.766555 21.454555 -0.003104 -0.000017 6.757566 0.098335 0.323851 3.502824 0.186917 0.650489 3.184752 0.190982 0.649350 21.005980 29.560543 13.649098 -32.959232 -23.848261 28.509829 79.301980 -81.797785 99.653341 -66.431397 48.527131 -63.410561 -114.042507 5.596955 2.975209 11.104855 -20.720175 -25.471691 -22.419828 83.762503 159.741992 -80.027489 -0.877193 37.278100 -89.268605 0.847300 -2.373575 4.095240 -1.446298 9.847850 
-285.777008 81.277382 433.235809 79.978687 5.266264 148.285401 143.518025 -10.282393 -173.210005 -102.155902 3.967053 -6.120577 78.162745 4.818897 2.658820 21.454550 0.003093 0.000005 154.834924 9.191100 -169.531907 -51.373493 -2.235809 0.320253 100.951302 1.122753 20.581754 21.454560 -0.003110 -0.000016 6.975283 0.126896 0.135835 3.938026 0.249098 0.275861 3.619938 0.250894 0.274353 18.432739 26.452182 11.766011 -32.627998 -21.492662 25.641859 72.366988 -82.143769 106.499055 -72.205966 46.879119 -67.474325 -113.007802 5.297527 2.951673 11.623341 -20.693103 -23.776105 -19.368251 83.354625 162.798515 -78.786833 -0.624010 39.333393 -89.927363 0.793422 -2.399181 4.191928 -1.579890 9.466319 
-283.151093 80.508148 437.877594 80.485426 3.713826 151.208681 136.285264 -7.220397 -178.403530 -105.600209 3.427809 -6.060977 78.425557 4.771156 2.558278 21.454555 0.003092 -0.000003 156.895251 10.431508 -167.534746 -55.233346 -1.974295 0.595592 105.931794 0.038658 20.051067 21.454557 -0.003112 -0.000017 7.061072 -0.184802 0.105044 4.108974 -0.373225 0.203538 3.790877 -0.371850 0.205789 17.923350 24.471523 10.521679 -34.132945 -19.678091 23.723614 75.567977 -82.347342 103.310723 -73.496578 45.859557 -66.726263 -112.733898 5.046830 2.957223 11.624098 -21.156175 -25.035963 -5.557236 84.122270 176.441244 -76.636423 -1.784459 40.893702 -91.615035 0.602546 -2.461218 4.410304 -1.212618 9.363019 
-279.935089 81.142464 442.053711 80.277269 3.495933 153.902221 130.906791 -5.817903 175.761340 -103.301598 2.662408 -4.361988 78.506795 3.196189 0.924726 21.454545 0.003088 0.000002 161.879868 8.672301 -165.566709 -52.766503 -2.162932 2.143920 107.179492 -1.214592 20.217891 21.454562 -0.003098 -0.000016 7.122690 -0.185207 0.196917 4.231946 -0.377469 0.387002 3.913830 -0.374986 0.389275 16.566419 23.087948 9.373351 -33.515229 -18.770007 22.030953 73.030049 -82.929172 105.782247 -73.891541 46.061874 -65.684980 -112.150395 5.126921 2.926668 11.807630 -20.431464 -25.709899 8.437930 84.440816 -169.705585 -75.263261 -3.497044 41.558969 -91.795564 0.562854 -2.466514 3.934637 -0.356457 8.530045 
-276.026703 82.813118 446.087799 79.003849 3.623925 156.205019 127.172139 -5.099703 171.148476 -96.018622 1.617383 -1.708536 77.922336 0.861614 -1.068133 21.454550 0.003092 -0.000000 167.396776 5.355699 -162.968491 -46.548491 -3.066361 3.709889 104.155815 -1.724892 20.656630 21.454558 -0.003103 -0.000016 6.884710 -0.104182 0.306922 3.756032 -0.218201 0.610347 3.437944 -0.214375 0.611656 16.297596 22.301819 8.708589 -33.803101 -17.835309 20.870818 73.364080 -83.347808 105.419134 -71.484726 46.755476 -62.359156 -111.178500 5.002209 2.893408 12.112967 -19.385667 -27.813020 19.427505 84.772838 -158.824861 -74.663202 -4.672187 40.547288 -90.731174 0.753107 -2.432237 4.300969 0.106876 8.576675 
-271.464508 84.997490 450.047699 77.587322 3.912363 157.864687 125.882517 -4.451094 168.093565 -85.063231 -0.091629 -0.517921 78.614241 -0.126920 -1.914228 21.454557 0.003093 0.000001 172.032753 1.858398 -161.929920 -40.545249 -4.079168 4.684618 95.576640 -0.819782 21.153975 21.454555 -0.003110 -0.000017 6.615603 -0.034316 0.507352 3.217996 -0.082546 1.013567 2.899962 -0.076287 1.014054 14.461203 22.171129 7.597387 -32.935387 -16.877838 19.317909 74.643026 -84.296105 104.077125 -69.630671 46.911884 -58.929718 -109.856790 4.750873 2.853552 11.872197 -18.767772 -29.002353 28.530040 84.763139 -149.806198 -74.025208 -5.800455 39.731852 -89.681477 0.913948 -2.396635 4.242909 0.222286 7.792657 
